<svg xmlns="http://www.w3.org/2000/svg" viewBox="0 0 512 512" fill="none">
  <rect width="512" height="512" rx="128" fill="#4F46E5"/>
  <circle cx="256" cy="256" r="180" fill="#6366F1" opacity="0.6"/>
  <path d="M256 120L286 212H382L304 268L334 360L256 304L178 360L208 268L130 212H226L256 120Z" fill="#FBBF24" stroke="#F59E0B" stroke-width="12" stroke-linejoin="round"/>
  <circle cx="210" cy="235" r="12" fill="#1E1B4B"/>
  <circle cx="302" cy="235" r="12" fill="#1E1B4B"/>
  <path d="M225 270C235 285 277 285 287 270" stroke="#1E1B4B" stroke-width="8" stroke-linecap="round"/>
  <circle cx="190" cy="250" r="10" fill="#F472B6" opacity="0.7"/>
  <circle cx="322" cy="250" r="10" fill="#F472B6" opacity="0.7"/>
  <rect x="140" y="380" width="100" height="24" rx="12" fill="#10B981"/>
  <text x="190" y="397" fill="#ffffff" font-family="sans-serif" font-size="16" font-weight="bold" text-anchor="middle">1 2 3</text>
  <rect x="272" y="380" width="100" height="24" rx="12" fill="#EC4899"/>
  <text x="322" y="397" fill="#ffffff" font-family="sans-serif" font-size="16" font-weight="bold" text-anchor="middle">A B C</text>
</svg>
